PathFileType	4	(X/Y/Z)	walk-thru1-3-TP.trc
DataRate	CameraRate	NumFrames	NumMarkers	Units	OrigDataRate	OrigDataStartFrame	OrigNumFrames
120.00	120.00	       4	60	mm	120.00	463	       528
Frame#	Time	Top.Head			Front.Head			Rear.Head			Jaw			C7			R.Clavicle			L.Clavicle			R.Shoulder			L.Shoulder			R.Scapula			L.Scapula			R.Scap.Inf			R.Biceps.Lateral			R.Elbow			R.Elbow.Medial			R.Forearm			R.Ulna			R.Radius			R.Wrist			R.Thumb.M1			R.Thumb.M2			R.Thumb.M3			R.Finger3.M1			R.Finger3.M2			R.Finger3.M3			L.Biceps.Lateral			L.Elbow			L.Elbow.Medial			L.Forearm			L.Ulna			L.Radius			L.Wrist			L.Thumb.M1			L.Thumb.M2			L.Thumb.M3			L.Finger3.M1			L.Finger3.M2			L.Finger3.M3			V.Sacral			R.ASIS			L.ASIS			R.Thigh			R.Thigh.Front			R.Knee			R.Knee.Medial			R.Shank			R.Ankle			R.Ankle.Medial			R.Heel			R.Toe			R.MedFoot			L.Thigh			L.Knee			L.Knee.Medial			L.Shank			L.Ankle			L.Ankle.Medial			L.Heel			L.Toe			L.MedFoot			V_mid_ASIS			V_R_Knee_JC			V_L_Knee_JC			V_R_Elbow_JC			V_L_Elbow_JC			V_R_Ankle_JC			V_L_Ankle_JC			V_R_Wrist_JC			V_L_Wrist_JC			V_R_ScaTrpz_1stMC_JC			V_R_1stMC_1stPP_JC			V_R_1stPP_1stDP_JC			V_R_LunCap_3rdMC_JC			V_R_3rdMC_3rdPP_JC			V_R_3rdPP_3rdMP_JC			V_R_3rdMP_3rdDP_JC			V_L_ScaTrpz_1stMC_JC			V_L_1stMC_1stPP_JC			V_L_1stPP_1stDP_JC			V_L_LunCap_3rdMC_JC			V_L_3rdMC_3rdPP_JC			V_L_3rdPP_3rdMP_JC			V_L_3rdMP_3rdPP_JC			V_ROOT_JC			V_R_Hip_JC			V_L_Hip_JC			V_R_GlenHum_JC			V_L_GlenHum_JC			V_ForeHead_Ctr			V_Vertex			V_Sagit_Lambdoid_Suture			V_R_FrontoTemp			V_L_FrontoTemporal			V_R_ParietalOccip			V_L_ParietalOcciptal			V_R_Temporal			V_L_Temporal			V_mid_FrontRearHead			V_mid_RLGlenHumCtrs			V_C7_vert			V_C1_vert			V_Mid_Hip			
		X1	Y1	Z1	X2	Y2	Z2	X3	Y3	Z3	X4	Y4	Z4	X5	Y5	Z5	X6	Y6	Z6	X7	Y7	Z7	X8	Y8	Z8	X9	Y9	Z9	X10	Y10	Z10	X11	Y11	Z11	X12	Y12	Z12	X13	Y13	Z13	X14	Y14	Z14	X15	Y15	Z15	X16	Y16	Z16	X17	Y17	Z17	X18	Y18	Z18	X19	Y19	Z19	X20	Y20	Z20	X21	Y21	Z21	X22	Y22	Z22	X23	Y23	Z23	X24	Y24	Z24	X25	Y25	Z25	X26	Y26	Z26	X27	Y27	Z27	X28	Y28	Z28	X29	Y29	Z29	X30	Y30	Z30	X31	Y31	Z31	X32	Y32	Z32	X33	Y33	Z33	X34	Y34	Z34	X35	Y35	Z35	X36	Y36	Z36	X37	Y37	Z37	X38	Y38	Z38	X39	Y39	Z39	X40	Y40	Z40	X41	Y41	Z41	X42	Y42	Z42	X43	Y43	Z43	X44	Y44	Z44	X45	Y45	Z45	X46	Y46	Z46	X47	Y47	Z47	X48	Y48	Z48	X49	Y49	Z49	X50	Y50	Z50	X51	Y51	Z51	X52	Y52	Z52	X53	Y53	Z53	X54	Y54	Z54	X55	Y55	Z55	X56	Y56	Z56	X57	Y57	Z57	X58	Y58	Z58	X59	Y59	Z59	X60	Y60	Z60	

463	3.850	-595.11072	-39.95008	1554.56946	-693.84332	-37.48344	1451.52771	-480.25177	-31.35667	1477.70740	-659.40527	-20.55801	1312.24365	-462.36227	-13.68357	1365.24878	-545.72272	96.31179	1276.53711	-557.46234	-118.15965	1284.52014	-496.94977	173.59650	1272.08765	-507.95206	-210.96854	1283.68152	-413.22153	73.64170	1289.70752	-412.44550	-109.03011	1289.54858	-365.67319	59.22046	1207.14929	-526.92407	222.50420	1128.93323	-505.42776	241.95471	965.79736	-473.20724	172.86098	949.22437	-585.27563	225.53604	897.06531	-564.99097	252.23129	809.79065	-631.09296	201.84781	767.96320	-631.68921	240.95566	734.41602	-657.86011	200.27588	718.22308	-669.69617	182.67229	684.44025	-679.27386	171.58438	644.83710	-655.89709	253.82927	660.23962	-656.65997	234.88165	610.86700	-646.11969	217.43611	575.01941	-491.35788	-271.42722	1136.83875	-444.49924	-283.18787	992.41217	-423.24823	-203.65388	985.40552	-532.29236	-264.33017	932.25610	-526.12335	-300.38788	840.60553	-581.48950	-243.19009	803.48370	-590.38672	-292.19611	778.50427	-614.09290	-249.28806	769.77301	-628.99347	-228.13516	732.94550	-636.88434	-223.44034	681.14618	-627.70557	-294.89371	698.89801	-636.12354	-285.45126	658.71826	-630.62299	-254.52390	621.78345	-352.89319	-27.95904	903.51123	-548.53540	134.66158	954.79987	-539.56128	-181.29524	949.28986	-506.13919	164.31268	564.23663	-557.99158	101.61476	459.74030	-491.98624	134.02176	418.60376	-508.39246	22.41730	413.42410	-397.98630	83.32133	270.14142	-214.88725	87.58575	134.90210	-245.82631	0.52372	143.65096	-158.18449	28.29527	150.34532	-311.35138	55.65806	37.89575	-290.10538	22.14642	87.00553	-586.70740	-205.26662	579.71899	-632.39563	-175.70747	447.59503	-652.98755	-56.84032	440.62564	-645.47693	-110.56527	254.83627	-579.09991	-123.73618	64.08692	-592.87732	-35.75030	83.68036	-521.74847	-75.12907	41.77231	-727.01196	-89.52107	38.83899	-669.91943	-54.76618	61.42222																																																																																																																															
464	3.858	-601.49335	-39.41880	1556.09558	-699.81653	-38.45531	1453.48157	-486.99338	-32.89922	1479.47168	-665.07855	-21.90145	1313.54346	-468.25235	-15.62654	1366.94922	-552.52631	95.27860	1278.05542	-563.89606	-119.24733	1286.20947	-502.91345	172.79863	1273.36841	-514.79694	-212.17982	1284.85046	-418.67899	72.86773	1290.73450	-419.14377	-110.02760	1291.07410	-372.28168	57.63630	1209.23938	-532.96881	221.62154	1130.80322	-509.01166	240.66306	967.58167	-475.73672	172.17909	952.24200	-589.22400	224.85388	896.99939	-565.69159	251.77769	811.10303	-631.41718	201.66074	768.11536	-632.20935	240.52116	733.66119	-657.50653	200.25906	717.18359	-669.53931	183.40417	683.90070	-678.49225	171.79810	644.90228	-653.87158	253.59680	659.20319	-654.77704	234.30885	610.04968	-643.58868	216.07457	574.92212	-498.02548	-273.14566	1138.40625	-451.34088	-283.96582	994.39001	-430.72855	-204.45195	986.60211	-539.42859	-265.69708	933.71063	-533.44061	-301.40234	841.91040	-588.24561	-245.44836	804.62518	-598.14948	-292.95300	780.16016	-621.99872	-250.32162	772.30884	-635.88739	-229.34337	735.43097	-643.15710	-223.18983	682.25879	-635.34711	-295.49176	699.76025	-642.79291	-284.85510	659.98743	-636.99988	-252.90253	624.60150	-358.81201	-29.21754	905.02557	-554.91119	133.35481	956.00244	-545.45056	-181.17033	951.07483	-516.04205	165.33345	564.72107	-568.91144	103.69043	460.93430	-502.45364	135.48795	419.22638	-520.50934	24.50125	413.03549	-407.51837	83.94554	271.23080	-221.53281	87.60577	139.75102	-253.64401	1.87138	147.59724	-165.39656	29.42337	156.81187	-312.91837	55.40557	38.12159	-295.38538	23.19201	87.28825	-587.30145	-206.01440	579.76593	-632.52759	-175.68315	447.67889	-653.79309	-56.10933	439.79623	-645.17773	-111.56860	254.30368	-579.09991	-123.73618	64.08692	-592.91681	-35.76357	83.50901	-522.06445	-74.66846	41.60248	-726.98743	-89.37439	38.99158	-669.93878	-55.29269	61.32787																																																																																																																															
465	3.867	-608.45923	-41.34610	1557.11157	-706.27197	-38.94127	1453.41345	-493.14651	-32.89037	1480.28516	-671.52277	-23.04700	1314.26697	-473.36987	-14.19641	1367.36328	-558.11609	94.59715	1279.89453	-570.29614	-120.24989	1287.63428	-509.41196	172.45609	1274.55139	-522.02704	-213.47110	1287.27527	-426.20789	71.52259	1293.33423	-426.23367	-111.01362	1292.38538	-377.38736	56.14658	1210.03845	-537.85278	219.92358	1132.30115	-512.23022	239.93890	969.52557	-477.16983	171.53387	953.84100	-591.54462	223.77094	897.71698	-568.05994	251.23676	811.79272	-629.90979	201.26498	767.52234	-632.20935	240.52116	733.66119	-657.50653	200.25906	717.18359	-669.26813	184.02754	683.59326	-677.30438	172.90068	644.47626	-653.06122	253.28311	658.53064	-652.59753	234.63228	608.51617	-641.19989	216.25623	574.34863	-505.15607	-273.43738	1140.47241	-458.00110	-285.00961	996.61218	-438.03635	-206.15126	987.40863	-546.32623	-266.90601	936.31116	-541.30231	-301.92053	844.34076	-596.12335	-245.72533	806.76642	-605.95569	-293.53329	781.47992	-629.97601	-250.95021	774.34924	-643.50537	-228.45903	737.23688	-649.10870	-223.27016	684.13458	-642.14398	-295.41574	700.22650	-649.51819	-284.03046	661.07996	-642.93921	-251.24236	625.57770	-364.47412	-29.64003	906.74622	-559.73645	132.06619	957.33411	-552.81201	-182.82428	952.38953	-525.53156	164.87813	566.61224	-579.09192	104.97895	462.42041	-512.75757	135.97462	419.38251	-534.18817	25.19059	412.37466	-416.73947	84.08996	273.12708	-229.29015	88.60997	143.39795	-261.95557	2.26787	151.07962	-174.73798	28.50231	164.13681	-314.63828	53.20439	36.74372	-300.66251	23.27612	88.06785	-587.18457	-207.57521	579.73102	-632.57318	-176.41495	447.93228	-653.60382	-56.99662	440.08453	-645.17773	-111.56860	254.30368	-579.07153	-123.86908	64.13250	-592.77869	-35.65637	83.42937	-521.94446	-74.74948	41.60797	-726.68951	-89.66715	38.82066	-669.61108	-55.86362	61.20584																																																																																																																															
466	3.875	-615.29315	-40.97655	1558.11938	-712.61304	-38.79957	1454.38477	-500.34601	-33.98403	1481.81030	-677.43390	-22.77035	1314.94177	-481.90451	-15.51307	1369.70044	-563.53296	93.45741	1280.73413	-576.63660	-120.61848	1289.19897	-515.36365	171.21951	1275.93787	-528.24030	-214.12210	1288.40210	-432.42871	70.32320	1293.18274	-431.37000	-112.75160	1294.74475	-383.90524	54.79698	1211.84180	-542.91431	219.53889	1133.57568	-514.07251	239.83319	971.53571	-481.22037	170.01332	955.92969	-592.20795	224.32530	898.14520	-568.44757	251.53970	812.08112	-630.43781	201.01842	767.53912	-632.45258	240.73216	733.79840	-657.38525	200.72699	716.82813	-669.09583	183.55670	683.20142	-676.38226	172.96751	643.84973	-652.59717	253.38556	658.37659	-650.77203	234.07074	607.40259	-638.38953	215.53268	574.75531	-512.15930	-275.57205	1142.87122	-465.84073	-287.12173	998.36926	-444.27869	-208.29367	990.13849	-553.86072	-268.46872	937.61749	-548.11499	-303.57587	846.04907	-603.90186	-246.55850	808.87683	-613.44336	-294.19202	783.98584	-636.91705	-251.56680	776.01166	-649.69312	-228.81732	739.31549	-654.72845	-222.97447	685.57037	-649.85071	-294.54352	701.76855	-655.15393	-283.38168	663.38202	-648.76007	-250.57547	627.96881	-370.61746	-30.66177	908.10559	-565.20081	130.59108	958.66101	-558.76361	-184.40401	953.91290	-533.86060	165.57137	567.76807	-590.22607	106.46379	463.90384	-524.35431	136.27507	419.59799	-546.19165	26.67631	412.24747	-426.88376	86.11807	274.54514	-237.15623	90.22785	148.61615	-270.48950	2.58082	154.72742	-183.75499	30.29624	169.83813	-316.41989	53.66661	37.58414	-306.51025	23.73544	90.03994	-587.71924	-208.30200	580.30139	-632.56396	-176.53940	447.86761	-653.58386	-57.18556	439.60486	-644.34991	-112.19912	254.03540	-578.77997	-123.88741	64.10698	-592.77869	-35.65637	83.42937	-521.92554	-74.74279	41.57325	-726.68951	-89.66715	38.82066	-669.37195	-56.07795	61.12944																																																																																																																															
